<?xml version="1.0" standalone="no"?>
<!DOCTYPE svg PUBLIC "-//W3C//DTD SVG 1.1//EN" "http://www.w3.org/Graphics/SVG/1.1/DTD/svg11.dtd" >
<svg xmlns="http://www.w3.org/2000/svg">
<metadata></metadata>
<defs>
<font id="AmaranthRegular" horiz-adv-x="1024" >
<font-face units-per-em="2048" ascent="1638" descent="-410" />
<missing-glyph horiz-adv-x="522" />
<glyph horiz-adv-x="0" />
<glyph horiz-adv-x="2048" />
<glyph unicode="&#xd;" horiz-adv-x="522" />
<glyph unicode=" "  horiz-adv-x="522" />
<glyph unicode="&#x09;" horiz-adv-x="522" />
<glyph unicode="&#xa0;" horiz-adv-x="522" />
<glyph unicode="!" horiz-adv-x="653" d="M207 131.5q0 63.5 39 109.5t112.5 46t112.5 -43t39 -110t-39 -112t-114 -45t-112.5 45.5t-37.5 109zM260 451v935h260l-59 -935h-201z" />
<glyph unicode="&#x22;" horiz-adv-x="749" d="M102 1386h197l-16 -497h-164zM449 1386h196l-16 -497h-164z" />
<glyph unicode="#" horiz-adv-x="1261" d="M82 293l20 160h215l41 321h-229l21 160h229l37 280h162l-37 -280h254l36 280h162l-37 -280h203l-20 -160h-203l-41 -321h217l-20 -160h-218l-36 -293h-162l37 293h-254l-37 -293h-162l37 293h-215zM479 453h254l41 321h-254z" />
<glyph unicode="$" horiz-adv-x="1062" d="M102 141l88 181q82 -58 220 -100q47 -15 88 -15q205 0 204 170q0 74 -52 113q-38 30 -133 65t-161.5 71t-113.5 81q-97 93 -97 233q0 118 86 206t226 114v161h168v-157q157 -18 297 -93l-82 -167q-166 83 -279 83q-70 0 -124 -27.5t-54 -80.5t15.5 -85t45.5 -56 q54 -46 174 -88q166 -68 236 -138q84 -84 84 -219q0 -201 -178 -310q-58 -36 -135 -52v-201h-168v193q-183 17 -355 118z" />
<glyph unicode="%" horiz-adv-x="1720" d="M82 840q0 165 78 265q82 105 235 105q303 0 303 -356q0 -254 -176 -340q-59 -29 -139 -29q-158 0 -229.5 95.5t-71.5 259.5zM283 874.5q0 -69.5 4 -109.5t16 -69q26 -65 90.5 -65t84.5 60.5t20 129t-4.5 109.5t-16.5 70q-26 65 -90.5 65t-84 -60.5t-19.5 -130zM485 0 l562 1202h192l-561 -1202h-193zM1022 348q0 163 77 266q79 105 238 105q299 0 299 -357q0 -161 -76 -262q-81 -106 -238 -106t-228.5 95t-71.5 259zM1223 383q0 -70 4 -110t16 -69q26 -65 90.5 -65t84.5 60.5t20 129t-4 109.5t-16 71q-27 64 -91.5 64t-84 -60t-19.5 -130z " />
<glyph unicode="&#x26;" horiz-adv-x="1175" d="M72 346q0 244 223 397q-47 94 -47 167t19.5 125t61.5 93q93 91 269 91q192 0 307 -148l-119 -129q-8 6 -22 19.5t-36 28.5q-54 36 -115.5 36t-93.5 -29.5t-32 -78.5q0 -131 213 -342q66 -64 146 -134q46 76 82 162l172 -69q-65 -144 -113 -218l199 -172l-117 -155 l-209 170q-177 -172 -418 -172q-148 0 -254 93q-116 101 -116 265zM313 377q0 -88 51.5 -138.5t126 -50.5t126 25t98.5 70q-217 182 -320 311q-82 -88 -82 -217z" />
<glyph unicode="'" horiz-adv-x="401" d="M102 1386h197l-16 -497h-164z" />
<glyph unicode="(" horiz-adv-x="784" d="M143 548q0 352 161 630q67 116 141.5 193t129.5 116l127 -139q-205 -168 -292 -502q-35 -131 -35 -298t33.5 -299t83.5 -231q88 -169 210 -270l-127 -139q-55 39 -129.5 115.5t-141.5 193.5q-161 278 -161 630z" />
<glyph unicode=")" horiz-adv-x="784" d="M145 -252q211 174 295 501q33 132 33 299t-35 298t-85 230q-86 172 -208 272l125 139q55 -39 130 -116t142 -193q160 -276 160 -630t-160 -630q-67 -117 -141.5 -193.5t-130.5 -115.5z" />
<glyph unicode="*" horiz-adv-x="921" d="M102 1061l62 186l211 -88l-19 227h197l-21 -233l226 94l61 -186l-231 -55l155 -179l-159 -116l-125 202l-127 -204l-160 116l158 183z" />
<glyph unicode="+" horiz-adv-x="1048" d="M123 526v183h305v311h193v-311h305v-183h-305v-323h-193v323h-305z" />
<glyph unicode="," horiz-adv-x="573" d="M82 -182q135 100 135 233q0 59 -18.5 110.5t-20.5 90.5q2 2 33 19.5t102 17.5q72 0 105 -43t33 -118t-24 -142.5t-63 -123.5q-71 -103 -194 -163z" />
<glyph unicode="-" horiz-adv-x="784" d="M102 569v170h580v-170h-580z" />
<glyph unicode="." horiz-adv-x="550" d="M123 131.5q0 63.5 39 109.5t113.5 46t112.5 -43t38 -110t-39 -112t-113 -45t-112.5 45.5t-38.5 109z" />
<glyph unicode="/" horiz-adv-x="854" d="M-20 -258l651 1751h243l-651 -1751h-243z" />
<glyph unicode="0" horiz-adv-x="1153" d="M92 637q0 493 270 630q95 48 228 48q367 0 446 -371q25 -121 25 -274q0 -493 -271 -633q-94 -49 -224 -49t-219 43t-147 126q-108 157 -108 480zM346 662.5q0 -105.5 9.5 -195.5t34.5 -157q56 -144 198 -144q173 0 206 282q11 89 11 194t-8.5 194.5t-34.5 155.5 q-58 145 -199 145q-173 0 -207 -281q-10 -88 -10 -193.5z" />
<glyph unicode="1" horiz-adv-x="788" d="M0 1032q128 52 187 89q119 73 223 184h174v-1305h-234v1032q-145 -136 -258 -168z" />
<glyph unicode="2" horiz-adv-x="1007" d="M72 0l2 193q54 61 159 168.5t153 162.5t102.5 122t87.5 120q59 97 59 187t-44 137t-119 47t-145.5 -29t-166.5 -70l-80 162q262 115 446 115q252 0 333 -185q30 -69 30 -185.5t-88 -249t-244 -302.5l-188 -207h555v-186h-852z" />
<glyph unicode="3" d="M72 94l69 170q92 -41 164 -69.5t131.5 -28.5t103.5 14.5t78 43.5q74 63 74 167t-55 162.5t-129 58.5q-84 0 -139.5 -12t-59.5 -12l-63 160q74 25 142.5 48t121.5 50q117 61 117 162q0 63 -41 96t-96.5 33t-88 -5.5t-66.5 -16.5q-36 -12 -157 -58l-80 157q168 76 292 94 q52 7 116 7q180 0 272 -79t92 -206q0 -181 -208 -278q129 -39 198.5 -136.5t69.5 -192.5t-23.5 -170t-78.5 -135q-122 -130 -373 -130q-151 0 -383 106z" />
<glyph unicode="4" horiz-adv-x="1075" d="M41 360v132l373 813h239l-358 -768h319v417l232 41v-458h198l-32 -177h-166v-360h-232v360h-573z" />
<glyph unicode="5" horiz-adv-x="1042" d="M92 94l70 170q94 -41 164.5 -69.5t144.5 -28.5q119 0 169 64.5t50 183.5t-56 175t-133 56t-122 -8t-77 -18.5t-49 -19.5t-24 -11l-96 71l70 646h671l-32 -187h-434l-43 -330q62 39 177 39t184 -31.5t117 -87.5q99 -114 99 -286q0 -293 -228 -398q-81 -38 -194 -38 q-187 0 -428 108z" />
<glyph unicode="6" horiz-adv-x="1073" d="M92 651q0 450 300 605q106 55 255 55q131 0 260 -56l-63 -161q-101 36 -198 36t-153.5 -32.5t-88.5 -89.5q-58 -101 -62 -293q66 82 178 117q43 14 96 14q180 0 282.5 -111.5t102.5 -314.5q0 -190 -117 -308q-121 -124 -335 -124q-243 0 -357 186q-100 165 -100 477z M342 573q8 -211 58.5 -311t160.5 -100q203 0 203 256q0 106 -42 179t-151 73q-74 0 -127 -30q-86 -49 -102 -67z" />
<glyph unicode="7" horiz-adv-x="937" d="M10 1305h854v-148l-411 -1157h-252l397 1118h-555z" />
<glyph unicode="8" horiz-adv-x="1073" d="M102 313.5q0 73.5 21.5 124.5t57.5 93q62 73 173 141q-92 53 -154.5 135t-62.5 192q0 131 117 222q120 94 291 94q163 0 272 -88q111 -89 111 -219q0 -173 -211 -322q171 -94 233 -242q21 -51 21 -118.5t-34 -132t-93 -110.5q-120 -95 -309 -95q-294 0 -398 188 q-35 64 -35 137.5zM346 318.5q0 -60.5 53.5 -114.5t140.5 -54t134 54t47 109.5t-17.5 92t-43.5 69.5q-40 52 -119 113q-96 -56 -130 -95.5t-49.5 -76.5t-15.5 -97.5zM379 1023q0 -56 14.5 -92t36.5 -65q38 -49 107 -90q147 82 147 214q0 79 -39 121t-109.5 42t-113.5 -37 t-43 -93z" />
<glyph unicode="9" horiz-adv-x="1071" d="M72 879q0 189 116 307q123 125 338 125q243 0 356 -187q99 -162 99 -477q0 -450 -299 -605q-104 -54 -254 -54q-135 0 -262 55l63 162q109 -37 202 -37t149.5 32.5t89.5 89.5q56 98 61 290q-102 -127 -278 -127t-278.5 111.5t-102.5 314.5zM309 881q0 -178 103 -233 q37 -19 101 -19t116.5 28.5t74 44t27.5 19.5q-6 213 -57 314.5t-160.5 101.5t-157 -72t-47.5 -184z" />
<glyph unicode=":" horiz-adv-x="591" d="M186 131.5q0 63.5 39 109.5t113 46t112.5 -43t38.5 -110t-38.5 -112t-113.5 -45t-113 45.5t-38 109zM186 889q0 64 39 109.5t113 45.5t112.5 -43t38.5 -109.5t-38.5 -111.5t-113.5 -45t-113 45t-38 109z" />
<glyph unicode=";" horiz-adv-x="591" d="M123 -182q135 100 135 233q0 59 -18.5 110.5t-20.5 90.5q2 2 32 19.5t101 17.5q72 0 106 -43t34 -118t-24 -142.5t-64 -123.5q-73 -103 -195 -163zM184 889q0 64 39 109.5t114 45.5t112.5 -43t37.5 -109.5t-38.5 -111.5t-112.5 -45t-113 45t-39 109z" />
<glyph unicode="&#x3c;" horiz-adv-x="931" d="M61 530v168l695 338l82 -190l-398 -178q-31 -16 -64.5 -29.5t-60.5 -24.5q90 -33 127 -53l408 -186l-82 -191z" />
<glyph unicode="=" horiz-adv-x="1030" d="M143 354v181h744v-181h-744zM143 713v180h744v-180h-744z" />
<glyph unicode="&#x3e;" horiz-adv-x="931" d="M82 375l407 186q81 37 127 53q-73 25 -124 54l-398 178l82 190l694 -338v-168l-706 -346z" />
<glyph unicode="?" horiz-adv-x="886" d="M82 1305q84 39 173 70.5t194 31.5q180 0 284.5 -71.5t104.5 -235.5q0 -145 -134 -317q-38 -48 -85 -107q-129 -161 -162 -273l-172 48q0 106 45 194t100 162t100 138.5t45 133t-43 109.5t-114 41q-81 0 -178 -49q-33 -17 -78 -37zM229 131.5q0 63.5 39 109.5t113 46 t112.5 -43t38.5 -110t-38.5 -112t-113.5 -45t-113 45.5t-38 109z" />
<glyph unicode="@" horiz-adv-x="1830" d="M113 408q0 209 77.5 367.5t203.5 266t287 163t313.5 55.5t283.5 -42t230 -128q221 -191 221 -523q0 -70 -19.5 -169t-62.5 -190t-111 -155.5t-174.5 -64.5t-166.5 66.5t-87 168.5q-29 -117 -98.5 -176t-192.5 -59q-174 0 -256 125t-82 333q0 212 122 348q125 138 329 138 q110 0 352 -53v-435q0 -142 14 -194q26 -100 90 -100q86 0 134 164q36 122 36 250t-47 231.5t-125 172.5q-155 134 -401 134q-129 0 -254 -44t-223 -131q-219 -194 -219 -511q0 -408 279 -538q108 -50 274 -50q153 0 316 64q32 12 36 14l55 -142q-15 -14 -99 -41 q-179 -55 -311 -55t-263.5 35t-233.5 120q-227 189 -227 585zM709 465q0 -154 20.5 -212t49 -85t72.5 -27t83 29t68 77q63 102 63 238v275q-80 20 -132 20t-96 -23.5t-73 -65.5q-55 -80 -55 -226z" />
<glyph unicode="A" horiz-adv-x="1239" d="M-10 0l532 1386h193l534 -1386h-260l-127 362h-500l-131 -362h-241zM428 543h371q-100 280 -185 571q-29 -92 -75.5 -241.5t-110.5 -329.5z" />
<glyph unicode="B" horiz-adv-x="1157" d="M143 0v1386l181 3l231 2q238 0 361.5 -94.5t123.5 -266.5q0 -100 -55 -180t-154 -129q123 -47 187.5 -133t64.5 -199q0 -176 -133 -283.5t-403 -107.5h-119l-222 2h-63zM387 174h176q139 0 199.5 62.5t60.5 156.5q0 158 -146 211q-54 19 -119 19h-104q-38 0 -67 -2v-447z M387 797h158q129 0 184 59t55 145q0 148 -134 197q-50 19 -110 19h-94q-34 0 -59 -3v-417z" />
<glyph unicode="C" horiz-adv-x="1071" d="M96 676q0 335 148 526q158 203 456 203q205 0 330 -148l-125 -149q-101 109 -229 109q-316 0 -316 -519q0 -372 172 -481q64 -41 162.5 -41t257.5 53l58 -172l-27 -10q-159 -59 -336 -59q-274 0 -412.5 175t-138.5 513z" />
<glyph unicode="D" horiz-adv-x="1316" d="M143 0v1386l169 3l233 2q348 0 516 -173.5t168 -515.5t-172 -524t-539 -182l-234 2zM387 180q23 -2 59 -2h103q215 0 315.5 126t100.5 376q0 528 -449 528l-129 -2v-1026z" />
<glyph unicode="E" horiz-adv-x="1050" d="M143 0v1386h824v-184h-580v-387h477l-30 -186h-447v-445h610v-184h-854z" />
<glyph unicode="F" horiz-adv-x="999" d="M143 0v1386h824v-184h-580v-399h477l-30 -185h-447v-618h-244z" />
<glyph unicode="G" horiz-adv-x="1239" d="M88 674q0 332 148 525q159 206 458 206q137 0 230.5 -45t146.5 -100l-119 -156q-53 53 -130 83t-160.5 30t-143 -41t-96.5 -112q-70 -134 -70 -370q0 -520 271 -520q102 0 185 83q89 89 89 228v187h240v-617q0 -304 -237 -443q-64 -38 -128 -69l-94 162q158 77 214 210 q23 56 26.5 112.5t3.5 105.5v29q-47 -86 -137.5 -132t-214.5 -46t-216 49t-152 140q-114 175 -114 501z" />
<glyph unicode="H" horiz-adv-x="1345" d="M143 0v1386h244v-577h571v577h244v-1386h-244v631h-571v-631h-244z" />
<glyph unicode="I" horiz-adv-x="530" d="M143 0v1386h244v-1386h-244z" />
<glyph unicode="J" horiz-adv-x="530" d="M-72 -295q139 68 188 169q27 54 27 153v1359h244v-1335q0 -304 -237 -440q-64 -37 -125 -68z" />
<glyph unicode="K" horiz-adv-x="1210" d="M143 0v1386h244v-1386h-244zM414 750v14q188 70 291.5 228.5t158.5 393.5h240q-88 -409 -264 -570q-56 -52 -119 -95l504 -721h-283z" />
<glyph unicode="L" horiz-adv-x="905" d="M143 0v1386h244v-1202h518v-184h-762z" />
<glyph unicode="M" horiz-adv-x="1660" d="M123 0l82 1391h190l350 -869q18 -47 42 -102t44 -109q25 67 87 211l352 869h186l82 -1391h-227l-23 530q-6 163 -10 340q-18 -51 -37.5 -102t-36 -96t-31 -82t-22.5 -58l-229 -532h-172l-232 526q-13 30 -45.5 112.5t-53 134.5t-38.5 106l-8 -342l-21 -537h-229z" />
<glyph unicode="N" horiz-adv-x="1349" d="M143 0v1391h191l481 -721q41 -59 83 -126t83 -128l-8 132t-4 114l-6 724h243v-1388h-202l-467 729q-39 59 -85 134t-87 138q16 -176 16 -274l6 -725h-244z" />
<glyph unicode="O" horiz-adv-x="1368" d="M92 676q0 334 146 525q157 204 456 204t440.5 -182t141.5 -518q0 -512 -335 -665q-114 -52 -268.5 -52t-264 46t-180.5 135q-136 172 -136 507zM356 698q0 -237 67 -364q83 -158 277 -158q314 0 314 508q0 241 -67 370q-84 163 -277 163q-314 0 -314 -519z" />
<glyph unicode="P" horiz-adv-x="1095" d="M143 0v1386l181 3l231 2q250 0 368.5 -112t118.5 -306t-130 -309q-135 -121 -382 -121h-143v-543h-244zM387 725h158q129 0 184 67.5t55 172.5q0 173 -134 231q-50 21 -110 21h-94q-34 0 -59 -3v-489z" />
<glyph unicode="Q" horiz-adv-x="1376" d="M88 686q0 323 152 514q164 205 465 205q297 0 442 -189q135 -177 135 -514q0 -364 -173 -606q-79 -110 -183.5 -178t-218.5 -88q89 -66 213 -66t340 105l83 -172q-204 -135 -401 -135q-133 0 -279.5 70.5t-275.5 213.5l45 136q69 -11 94 -11q213 0 350 185 q144 196 144 524q0 240 -67 372q-84 165 -277 165q-168 0 -255 -155q-77 -137 -77 -341t46 -312t179 -139l-26 -174q-229 15 -351 203q-104 160 -104 387z" />
<glyph unicode="R" horiz-adv-x="1175" d="M143 0v1386l181 3l231 2q254 0 370.5 -99.5t116.5 -279.5q0 -119 -59 -211t-195 -133q102 -59 191 -231q43 -83 88 -192.5t104 -244.5h-264q-70 162 -122 276.5t-101 186.5t-105.5 104.5t-132.5 32.5h-59v-600h-244zM387 778h158q115 0 177 51.5t62 151.5q0 164 -134 217 q-50 19 -126 19h-137v-439z" />
<glyph unicode="S" horiz-adv-x="1038" d="M61 121l86 188l37 -20q205 -111 309.5 -111t158 53.5t53.5 149.5q0 120 -120 181q-38 20 -107.5 48.5t-142.5 67.5t-124 89q-105 103 -105 269q0 151 124 260q57 50 137 79.5t164 29.5t149 -13.5t120 -31.5q105 -33 144 -64l-100 -176l-27 15q-152 79 -244 79 q-200 0 -200 -143q0 -92 59.5 -150.5t163.5 -99.5t168.5 -76.5t109.5 -82.5q93 -97 93 -256q0 -169 -118 -288q-128 -130 -343 -130q-136 0 -282 54q-68 25 -163 79z" />
<glyph unicode="T" horiz-adv-x="1009" d="M20 1202v184h967l-31 -184h-344v-1202h-241v1202h-351z" />
<glyph unicode="U" horiz-adv-x="1300" d="M123 510v876h242v-858q0 -352 297 -352q139 0 205.5 93t66.5 259v858h244v-876q0 -364 -288 -480q-104 -42 -252 -42t-245.5 42t-158.5 114q-111 131 -111 366z" />
<glyph unicode="V" horiz-adv-x="1191" d="M-16 1386h260l172 -495q66 -193 112.5 -339t71.5 -224q63 213 184 559l179 499h247l-518 -1386h-190z" />
<glyph unicode="W" horiz-adv-x="1779" d="M20 1386h244l180 -694q47 -180 68 -291q34 137 82 287l217 698h182l217 -698q56 -178 82 -301q19 135 64 301l180 698h248l-385 -1386h-180l-275 842q-31 84 -49 164q-10 -39 -19.5 -78t-23.5 -86l-266 -842h-180z" />
<glyph unicode="X" horiz-adv-x="1191" d="M0 0l430 727l-389 659h276l195 -350q41 -75 84 -164q39 80 86 162l197 352h274l-391 -661l430 -725h-279l-229 410q-65 118 -88 168l-86 -168l-229 -410h-281z" />
<glyph unicode="Y" horiz-adv-x="1110" d="M0 1386h264l291 -628l297 628h258l-436 -866v-520h-244v530z" />
<glyph unicode="Z" horiz-adv-x="1081" d="M82 0v145l602 1057q-61 -6 -176 -6h-391l-33 190h901v-145l-590 -1055q70 4 152 4h463v-190h-928z" />
<glyph unicode="[" horiz-adv-x="755" d="M164 -381v1856h467v-181h-244v-1495h244v-180h-467z" />
<glyph unicode="\" horiz-adv-x="854" d="M-20 1493h243l651 -1751h-243z" />
<glyph unicode="]" horiz-adv-x="755" d="M125 -201h244v1495h-244v181h467v-1856h-467v180z" />
<glyph unicode="^" horiz-adv-x="1107" d="M102 645l367 741h170l367 -741l-220 -24l-180 395l-51 125q-11 -32 -53 -125l-189 -410z" />
<glyph unicode="_" d="M0 -164h1024v-170h-1024v170z" />
<glyph unicode="`" d="M137 1450l156 145l348 -387l-98 -106q-267 171 -406 348z" />
<glyph unicode="a" horiz-adv-x="1097" d="M72 496q0 236 136 386q138 154 353 154q136 0 349 -48q40 -9 46 -11v-483q0 -300 99 -437l-183 -73q-94 94 -104 252q-35 -123 -111.5 -185.5t-190 -62.5t-184.5 35.5t-118 102.5q-92 131 -92 370zM324 516q0 -180 21.5 -242.5t54 -92t86 -29.5t96.5 34.5t74 91.5 q67 119 67 277v295q-73 22 -143 22t-120 -26.5t-81 -73.5q-55 -83 -55 -256z" />
<glyph unicode="b" horiz-adv-x="1089" d="M133 47v1397l234 41v-625q78 176 274 176q188 0 285 -138q92 -131 92 -370q0 -235 -136 -386q-139 -154 -354 -154q-92 0 -210 20t-185 39zM367 172q90 -20 150.5 -20t111.5 26.5t81 73.5q56 86 56 256q0 180 -21.5 242.5t-54.5 92t-86 29.5t-96 -34.5t-75 -91.5 q-66 -119 -66 -277v-297z" />
<glyph unicode="c" horiz-adv-x="839" d="M72 485q0 265 134 415q129 144 335 144q177 0 276 -139l-131 -125q-31 35 -62.5 59.5t-73.5 24.5t-80 -9t-70 -45q-76 -84 -76 -294q0 -212 76 -301q53 -61 149 -61q61 0 125.5 18t75.5 23l57 -148q-6 -2 -27.5 -12t-58.5 -21q-100 -28 -211 -28t-195 35.5t-138 100.5 q-105 128 -105 363z" />
<glyph unicode="d" horiz-adv-x="1097" d="M72 496q0 236 136 386q64 72 154.5 113t177.5 41t183 -14v463l233 -41v-950q0 -207 48 -335q18 -50 33.5 -73t17.5 -29l-183 -73q-16 8 -42 53q-56 99 -62 199q-35 -123 -111.5 -185.5t-190 -62.5t-184.5 35.5t-118 102.5q-92 131 -92 370zM324 516q0 -180 21.5 -241.5 t54 -91t86 -29.5t96.5 34.5t74 91.5q67 119 67 275v295q-73 22 -143 22t-120 -26.5t-81 -73.5q-55 -83 -55 -256z" />
<glyph unicode="e" horiz-adv-x="968" d="M72 485q0 267 142 417q134 142 351 142q173 0 262 -84q80 -75 80 -206q0 -153 -159 -258q-162 -107 -429 -111q14 -107 49 -151t76 -62t103 -18q122 0 291 71l61 -145q-185 -94 -385 -94q-442 0 -442 499zM313 532q181 7 279 80q82 60 82 130.5t-35 106.5t-92 36 q-122 0 -183 -114q-46 -88 -51 -239z" />
<glyph unicode="f" horiz-adv-x="720" d="M0 -301q133 68 184 171q29 60 29 159v825h-184v166h178q-14 54 -14 130.5t29.5 140t79.5 104.5q102 84 255 84q132 0 215 -86l-100 -133q-6 6 -38 22t-55.5 16t-50 -5t-50.5 -23q-60 -42 -60 -135q0 -59 16 -115h254l-29 -166h-213v-803q0 -301 -228 -439 q-62 -38 -124 -69z" />
<glyph unicode="g" horiz-adv-x="1087" d="M72 496q0 236 136 386q138 154 371 154q126 0 384 -59l-11 -563v-20q0 -73 19 -153q22 -91 32.5 -142.5t10.5 -112.5q0 -217 -110.5 -323.5t-299.5 -106.5q-156 0 -326 65q-36 14 -49 21l58 178q31 -12 65.5 -25.5t73.5 -26.5q89 -28 158 -28q115 0 166 68.5t51 176 t-45 216.5q-72 -213 -307 -213q-188 0 -285 138q-92 131 -92 370zM324 516q0 -180 21.5 -242.5t54 -92t85 -29.5t94.5 32.5t75 87.5q69 116 69 267v311q-73 22 -143 22t-120 -26.5t-81 -73.5q-55 -83 -55 -256z" />
<glyph unicode="h" horiz-adv-x="1105" d="M133 0v1444l234 41v-596q111 147 317 147q158 0 228.5 -95t70.5 -257v-684h-233v668q0 186 -136 186q-93 0 -166 -87q-81 -95 -81 -226v-541h-234z" />
<glyph unicode="i" horiz-adv-x="524" d="M102 1332q0 60 36 101.5t104.5 41.5t103.5 -39t35 -101q0 -61 -36 -102t-103.5 -41t-103.5 40t-36 100zM125 223v797h233v-776q0 -47 14.5 -63.5t33.5 -16.5h27q16 0 36 4l25 -148q-49 -28 -151.5 -28t-160 64.5t-57.5 166.5z" />
<glyph unicode="j" horiz-adv-x="499" d="M-80 -301q189 97 208 256q5 41 5 72v993h234v-971q0 -298 -229 -437q-62 -38 -124 -69zM111 1332q0 60 35.5 101.5t103 41.5t103.5 -39t36 -101q0 -61 -36 -102t-104.5 -41t-103 40t-34.5 100z" />
<glyph unicode="k" horiz-adv-x="1064" d="M133 0v1444l234 41v-584q110 137 315 137q131 0 214 -72q87 -75 87 -182.5t-38 -167.5q-72 -112 -208 -159l287 -457h-264l-295 510l-2 20q165 41 245 126q37 40 37 97.5t-34.5 88t-102.5 30.5t-117 -30.5t-76.5 -69.5t-37.5 -73.5t-10 -41.5v-657h-234z" />
<glyph unicode="l" horiz-adv-x="595" d="M123 221v1223l233 43v-1243q0 -84 72 -84q49 0 109 16l28 -147q-100 -37 -216 -37t-171 64.5t-55 164.5z" />
<glyph unicode="m" horiz-adv-x="1656" d="M51 952l185 74q74 -86 100 -221q51 123 144 177t198 54q184 0 250 -190q55 102 142 146t175 44t142.5 -25.5t86.5 -71.5q60 -88 60 -255v-684h-231v668q0 186 -119 186q-84 0 -152 -84q-74 -92 -74 -225v-545h-231v668q0 86 -26.5 136t-80 50t-93.5 -23.5t-71 -68.5 q-71 -101 -71 -254v-508h-233v516q0 292 -101 436z" />
<glyph unicode="n" horiz-adv-x="1124" d="M51 952l185 74q74 -86 100 -221q53 123 153.5 177t210.5 54q158 0 228.5 -95t70.5 -257v-684h-231v662q0 190 -135 190q-98 0 -170 -92q-78 -100 -78 -254v-506h-233v516q0 292 -101 436z" />
<glyph unicode="o" horiz-adv-x="1058" d="M72 500q0 244 116 388q125 156 355.5 156t337 -139t106.5 -383q0 -242 -115 -386q-126 -156 -352 -156q-448 0 -448 520zM324 519q0 -75 9 -142.5t33 -117.5q53 -107 175 -107q159 0 186 212q8 64 8 139t-9 142.5t-34 118.5q-51 108 -174 108q-160 0 -186 -214 q-8 -64 -8 -139z" />
<glyph unicode="p" horiz-adv-x="1107" d="M51 952l185 74q42 -42 68 -111t34 -129q35 123 110.5 186.5t191 63.5t186.5 -35.5t117 -102.5q91 -133 91 -370q0 -239 -134 -386q-138 -154 -355 -154q-37 0 -160 12v-412l-233 -41v969q0 292 -101 436zM385 174q73 -22 142 -22t120 26.5t82 73.5q55 83 55 256 q0 180 -21.5 242.5t-54 92t-86 29.5t-96.5 -34.5t-74 -91.5q-67 -122 -67 -277v-295z" />
<glyph unicode="q" horiz-adv-x="1089" d="M72 496q0 236 136 386q138 154 353 154q81 0 203.5 -21t191.5 -38v-1432l-233 43v539q-81 -139 -274 -139q-188 0 -285 138q-92 131 -92 370zM324 516q0 -180 21.5 -241.5t54 -91t85 -29.5t95.5 33.5t74 90.5q69 122 69 277v295q-73 22 -143 22t-120 -26.5t-81 -73.5 q-55 -83 -55 -256z" />
<glyph unicode="r" horiz-adv-x="755" d="M51 952l185 74q76 -97 98 -215q77 223 295 223q47 0 88 -11l39 -11l-66 -228q2 0 -23.5 11.5t-69.5 11.5t-81 -18.5t-66 -50.5q-65 -72 -65 -177v-561h-233v516q0 292 -101 436z" />
<glyph unicode="s" horiz-adv-x="843" d="M49 78l76 172l27 -14q142 -84 227 -84q156 0 156 104q0 112 -155 170.5t-223.5 134.5t-68.5 197q0 116 99 202q98 84 247 84q107 0 189.5 -29t128.5 -50l-70 -160q-153 67 -242 67q-47 0 -80.5 -22.5t-33.5 -67.5q0 -117 170 -182q144 -57 190.5 -105.5t65 -96.5 t18.5 -109t-23.5 -116.5t-69.5 -98.5q-101 -94 -263 -94q-115 0 -251 48q-52 19 -83 35z" />
<glyph unicode="t" horiz-adv-x="739" d="M20 854v166h185l41 240l192 43v-283h252l-28 -166h-224v-606q0 -53 29 -68.5t87.5 -15.5t135.5 29l39 -154q-141 -47 -262 -47q-187 0 -243 123q-19 43 -19 106v633h-185z" />
<glyph unicode="u" horiz-adv-x="1124" d="M123 340v680h233v-676q0 -86 31 -135t90.5 -49t103.5 25.5t79 72.5q79 104 79 262v500h234v-526q0 -201 49 -340q23 -61 49 -97l-182 -73q-41 38 -68.5 104t-34.5 123q-55 -121 -155.5 -172t-208.5 -51q-162 0 -230.5 94t-68.5 258z" />
<glyph unicode="v" horiz-adv-x="1073" d="M123 340v680h233v-674q0 -192 136 -192q137 0 200 199q53 164 53 433q0 87 -8 140t-10 73l-4 21h238q20 -80 20 -258t-34 -335t-103 -254q-129 -183 -422 -183q-162 0 -230.5 93t-68.5 257z" />
<glyph unicode="w" horiz-adv-x="1579" d="M123 334v686h233v-668q0 -198 136 -198q196 0 196 397v469h232q-2 -154 -2 -285l-3 -223v-160q0 -86 33 -142t106 -56t112.5 55t58 144t22.5 203t4 237t-22 227h237q21 -84 21 -260t-25.5 -334t-83.5 -255q-112 -185 -393 -185q-199 0 -272 164q-37 -84 -101.5 -124 t-207 -40t-212 92t-69.5 256z" />
<glyph unicode="x" horiz-adv-x="983" d="M-10 0l342 541l-299 479h270l129 -211q12 -20 32.5 -63.5t41.5 -86.5q62 92 100.5 164t59.5 135l22 62h242q0 2 -24.5 -67.5t-73.5 -157.5q-79 -145 -181 -256l332 -539h-266l-152 264l-80 150l-79 -152l-154 -262h-262z" />
<glyph unicode="y" horiz-adv-x="1101" d="M123 340v680h233v-674q0 -86 31 -135t105 -49q86 0 162 85q83 92 83 218v555h240l-10 -606q0 -86 20.5 -175t30.5 -140.5t10 -112.5q0 -217 -110.5 -323.5t-299.5 -106.5q-153 0 -325 65q-37 14 -49 21l57 178q193 -80 302.5 -80t160.5 68.5t51 172t-41 207.5 q-57 -109 -152.5 -154.5t-199.5 -45.5q-162 0 -230.5 94t-68.5 258z" />
<glyph unicode="z" horiz-adv-x="856" d="M61 0v139l453 717q-104 -6 -207 -6h-201l-28 170h708v-139l-446 -717q92 6 184 6h281v-170h-744z" />
<glyph unicode="{" horiz-adv-x="745" d="M123 461v168q143 32 143 202q0 92 -14 199t-14 215.5t74.5 173t215.5 64.5q78 0 174 -25l-45 -172q-55 19 -87 19t-50 -9.5t-30 -23.5q-19 -25 -19 -58q0 -92 13.5 -183t13.5 -153.5t-6.5 -104.5t-23.5 -82q-38 -88 -140 -148q141 -85 164 -229q6 -42 6 -103.5 t-13.5 -152.5t-13.5 -143t4 -68.5t15 -30.5q48 -55 167 -13l45 -172q-96 -25 -174 -24q-141 0 -215.5 64.5t-74.5 173t14 215t14 198.5q0 169 -143 203z" />
<glyph unicode="|" horiz-adv-x="632" d="M205 -258v1751h223v-1751h-223z" />
<glyph unicode="}" horiz-adv-x="745" d="M41 -369l47 172q55 -18 87 -18t50.5 9t29.5 22q19 24 19 87.5t-13 155t-13 152.5t6 103t24 82q37 87 140 147q-143 86 -164 230q-6 42 -6 104.5t13 153.5t13 143t-4 67.5t-15 30.5q-25 33 -68.5 33t-98.5 -19l-47 172q98 25 176 25q141 0 215 -64.5t74 -173t-14.5 -215 t-14.5 -199.5q0 -170 144 -202v-168q-144 -32 -144 -203q0 -92 14.5 -198.5t14.5 -215t-74 -173t-215 -64.5q-78 0 -176 24z" />
<glyph unicode="~" horiz-adv-x="1056" d="M102 631q48 90 141 141q48 27 110.5 27t106.5 -19.5t81 -42t73.5 -42t75.5 -19.5t61.5 5t40.5 17q32 21 76 72l86 -94q-53 -95 -143 -144q-47 -26 -109.5 -26t-105.5 19.5t-80 42t-75 42t-77 19.5t-60 -5.5t-40 -17.5q-22 -14 -76 -71z" />
<glyph unicode="&#xa1;" horiz-adv-x="653" d="M135 882.5q0 63.5 38 108.5t113 45t113.5 -45t38.5 -111.5t-38.5 -109.5t-112.5 -43t-113 46t-39 109.5zM188 -373v936h201l60 -936h-261z" />
<glyph unicode="&#xa2;" horiz-adv-x="937" d="M113 635q0 345 229 476q70 40 154 52v176h159v-178q133 -23 211 -131l-133 -127q-39 44 -78 66v-645q63 10 129 32l13 2l57 -147q-96 -41 -199 -55v-242h-159v238q-383 34 -383 483zM358 666q0 -281 138 -332v645q-138 -41 -138 -313z" />
<glyph unicode="&#xa3;" horiz-adv-x="1153" d="M123 514v184h151l15 181q12 192 131 307q121 117 307 117q195 0 322 -93l-99 -178q-93 80 -209 80q-127 0 -181 -112q-21 -42 -28 -107l-20 -195h373l-29 -184h-364l-9 -80q-16 -148 -86 -254q76 12 152 13l231 -13q82 0 193 47l69 -172l-20 -10q-131 -57 -231.5 -57 t-172 12t-175.5 12t-248 -16l-58 137q51 31 89 123q18 43 22 109l12 149h-137z" />
<glyph unicode="&#xa4;" horiz-adv-x="1204" d="M61 129l177 158q-92 121 -92.5 292t96.5 293l-176 160l139 139l170 -188q100 55 228 55t228 -53l168 186l142 -139l-178 -160q96 -121 96 -292q0 -170 -96 -291l180 -160l-139 -139l-173 188q-104 -55 -232 -55t-228 53l-170 -186zM319 589q0 -132 79.5 -222.5t202 -90.5 t203.5 82.5t81 214.5q0 136 -79 223q-82 91 -208 91q-121 0 -201 -84q-78 -82 -78 -214z" />
<glyph unicode="&#xa5;" horiz-adv-x="1212" d="M61 1305h265l278 -564l287 564h258l-344 -607h168v-180h-250v-127h250v-180h-250v-211h-244v211h-246v180h246v127h-246v180h168z" />
<glyph unicode="&#xa6;" horiz-adv-x="632" d="M205 -258v766h223v-766h-223zM205 723v770h223v-770h-223z" />
<glyph unicode="&#xa7;" horiz-adv-x="1142" d="M102 502q0 120 79 204q57 62 145 99q-80 102 -80 209q0 129 94 215q97 88 252 88q102 0 169.5 -24.5t88.5 -32.5l-72 -160q-16 10 -65 27.5t-115 17.5q-117 0 -117 -109q0 -81 106 -169q46 -38 103.5 -76.5t105.5 -76.5t86 -73t66 -77q62 -91 62 -176t-22.5 -135 t-56.5 -87q-55 -60 -145 -98q80 -103 80 -207q0 -129 -94 -215q-97 -88 -252 -88q-126 0 -234 46q-22 9 -24 11l72 160q90 -45 180 -45q117 0 117 108q0 91 -137 194q-58 44 -126.5 89t-126.5 100q-139 132 -139 281zM340 537q0 -56 28.5 -97t74.5 -82t102.5 -81.5 t111.5 -86.5q115 38 115 156q0 78 -105 169q-46 40 -102.5 81t-111.5 86q-42 -14 -67 -41q-46 -48 -46 -104z" />
<glyph unicode="&#xa8;" d="M180 1292q0 55 33 93t94 38t94 -36.5t33 -92.5q0 -55 -32.5 -93t-95 -38t-94.5 37t-32 92zM588 1292q0 55 32.5 93t95 38t95.5 -36.5t33 -92.5q0 -55 -33 -93t-95 -38t-95 37t-33 92z" />
<glyph unicode="&#xa9;" horiz-adv-x="1601" d="M92 696q0 310 202 510q201 199 513 199q310 0 507 -199q195 -197 195 -510q0 -310 -201 -510q-201 -198 -515 -198q-313 0 -506 198q-195 201 -195 510zM266 709q0 -243 148 -405q153 -167 385 -167q234 0 385 153q149 151 149 392q0 245 -149 406q-153 167 -383 167 q-235 0 -385 -153q-150 -154 -150 -393zM506 692q0 194 86 306q89 118 264 118q121 0 195 -80l-101 -108q-59 39 -110 39q-142 0 -142 -262q0 -111 36 -187t118.5 -76t136.5 27l45 -135q-17 -17 -91.5 -29t-117.5 -12q-319 0 -319 399z" />
<glyph unicode="&#xaa;" horiz-adv-x="819" d="M72 1038q0 162 94 264q96 103 246 103q93 0 252 -33l26 -6v-332q0 -210 68 -297l-135 -53q-51 39 -80 127q-53 -125 -196.5 -125t-209 96.5t-65.5 255.5zM270 1078.5q0 -70.5 3 -112.5t13 -75q21 -74 79 -74q57 0 101 89q42 87 42 198v162q-54 12 -78 12 q-94 0 -127 -64.5t-33 -135z" />
<glyph unicode="&#xab;" horiz-adv-x="1161" d="M102 502q83 106 221 239.5t220 204.5l96 -110l-266 -334l266 -334l-96 -111q-292 257 -441 445zM553 502q83 107 276 297q80 76 162 147l96 -110l-266 -334l266 -334l-96 -111q-291 255 -438 445z" />
<glyph unicode="&#xac;" horiz-adv-x="1046" d="M102 629v180h840v-436h-176v256h-664z" />
<glyph unicode="&#xad;" horiz-adv-x="784" d="M102 569v170h580v-170h-580z" />
<glyph unicode="&#xae;" horiz-adv-x="1196" d="M123 930q0 206 135 342q134 133 344 133q211 0 340 -133q131 -135 131 -342q0 -208 -137 -342q-134 -133 -342 -133q-213 0 -340 133q-131 136 -131 342zM256 936q0 -152 95 -258q96 -107 243 -107q150 0 246 98t96 251q0 154 -94 258q-97 106 -248 106q-150 0 -243 -97 q-95 -99 -95 -251zM428 666v522h24l92 2h38q188 0 188 -146q0 -72 -80 -120q33 -10 55.5 -57.5t63.5 -159.5l-102 -37q-25 61 -41.5 103t-33.5 67q-29 43 -85 47h-10v-221h-109zM537 950q83 0 107 30q13 17 13 53t-18 63.5t-72 27.5h-30v-174z" />
<glyph unicode="&#xaf;" d="M184 1229v170h660v-170h-660z" />
<glyph unicode="&#xb0;" horiz-adv-x="634" d="M82 1237q0 104 66.5 172t170.5 68t169 -68t65 -171t-66.5 -171t-171.5 -68q-104 0 -168.5 67t-64.5 171zM213 1241q0 -55 27.5 -90t77.5 -35t78 32t28 87t-27.5 90t-78 35t-78 -32t-27.5 -87z" />
<glyph unicode="&#xb1;" horiz-adv-x="1050" d="M123 66v180h307v280h-305v183h305v311h193v-311h305v-183h-305v-280h303v-180h-803z" />
<glyph unicode="&#xb2;" horiz-adv-x="649" d="M72 1325q143 80 254 80q225 0 225 -193q0 -80 -49 -154q-95 -142 -215 -227h278v-143h-491v146q66 42 146.5 130.5t113.5 135.5t33 94q0 72 -58 72q-43 0 -89 -22.5t-62.5 -34t-20.5 -13.5z" />
<glyph unicode="&#xb3;" horiz-adv-x="671" d="M72 743l53 125q100 -55 176 -55q37 0 67.5 23.5t30.5 67.5q0 95 -73 95q-38 0 -67 -5t-44 -7l-43 107q29 8 62.5 15t63.5 19q69 29 69 83.5t-67 54.5q-37 0 -150 -52l-62 129q66 29 121 45.5t142 16.5t141.5 -47t54.5 -114.5t-30 -102.5t-60 -56q121 -51 121 -172 q0 -162 -143 -219q-52 -20 -117 -20q-115 0 -246 69z" />
<glyph unicode="&#xb4;" d="M365 1208l348 387l155 -145q-97 -121 -262 -250q-70 -53 -141 -98z" />
<glyph unicode="&#xb5;" horiz-adv-x="1134" d="M133 -455v1475h234v-684q0 -78 47 -127t103 -49t95 21.5t70 61.5q68 88 68 220v557h233v-526q0 -290 98 -437l-182 -73q-18 16 -48 56t-50 136q-76 -188 -269 -188q-94 0 -165 49v-449z" />
<glyph unicode="&#xb6;" horiz-adv-x="1183" d="M123 970q0 198 119.5 309.5t351.5 111.5v-848q-236 0 -353.5 114.5t-117.5 312.5zM582 -295q200 98 212 250q3 39 3 72v1359h241v-1335q0 -304 -236 -440q-65 -37 -126 -68z" />
<glyph unicode="&#xb7;" horiz-adv-x="509" d="M102 649.5q0 63.5 39 109.5t114 46t113 -43t38 -110t-39 -111.5t-113 -44.5t-113 45t-39 108.5z" />
<glyph unicode="&#xb8;" d="M305 -412l33 111q78 -27 131 -27q102 0 102 64q0 42 -64 68q-52 22 -124 22l45 180h133l-22 -102q80 -6 132 -46t52 -105.5t-21.5 -102.5t-56.5 -58q-61 -38 -137 -38q-118 0 -203 34z" />
<glyph unicode="&#xb9;" horiz-adv-x="544" d="M20 1237l27 10q57 18 125 60.5t107 78.5h120v-698h-168v516q-66 -63 -139 -96z" />
<glyph unicode="&#xba;" horiz-adv-x="837" d="M92 1032q0 261 186 344q64 29 148 29q168 0 243.5 -95.5t75.5 -260.5q0 -256 -185 -341q-62 -28 -146 -28q-322 0 -322 352zM291 1071.5q0 -71.5 5 -114t20 -73.5q35 -67 109.5 -67t98 62.5t23.5 134t-5 113.5t-20 73q-34 68 -109 68t-98.5 -62.5t-23.5 -134z" />
<glyph unicode="&#xbb;" horiz-adv-x="1161" d="M72 168l266 334l-266 334l98 110q310 -279 438 -444q-86 -111 -222 -242t-216 -203zM522 168l266 334l-266 334l96 110q306 -275 439 -444q-129 -166 -439 -445z" />
<glyph unicode="&#xbc;" horiz-adv-x="1456" d="M10 1051l27 10q53 17 122.5 59.5t108.5 79.5h121v-698h-168v516q-66 -63 -139 -96zM283 0l561 1202h190l-559 -1202h-192zM834 190v80l184 447h168l-170 -400h139v189l170 41v-230h100l-20 -127h-80v-190h-170v190h-321z" />
<glyph unicode="&#xbd;" horiz-adv-x="1484" d="M10 1051l27 10q53 17 122.5 59.5t108.5 79.5h121v-698h-168v516q-66 -63 -139 -96zM283 0l561 1202h190l-559 -1202h-192zM907 635q135 80 254 80q225 0 225 -191q0 -80 -49 -154.5t-98 -123.5q-70 -70 -117 -103h279v-143h-492v145q72 46 152 138q76 82 108.5 129 t32.5 94q0 70 -57 69q-71 0 -151 -54q-17 -11 -21 -13z" />
<glyph unicode="&#xbe;" horiz-adv-x="1611" d="M12 541l54 125q101 -56 157 -56q119 0 119 99q0 37 -18.5 62.5t-62.5 25.5t-105 -13l-43 107q29 8 62.5 15t62.5 20q69 29 69 82q0 23 -13 39t-48.5 16t-155.5 -51l-59 129q133 61 240.5 61t162.5 -47t55 -131.5t-92 -140.5q123 -52 123 -172q0 -163 -144 -219 q-52 -21 -116 -21q-117 0 -248 70zM387 0l559 1202h193l-561 -1202h-191zM940 170v82l186 444h168l-170 -397h138v188l170 41v-229h100l-21 -129h-79v-170h-170v170h-322z" />
<glyph unicode="&#xbf;" horiz-adv-x="888" d="M49 -86q0 149 134 315q118 145 171.5 225.5t75.5 155.5l172 -47q0 -106 -45 -194t-100.5 -162t-100.5 -138.5t-45 -133t43 -109.5t115 -41q77 0 178 49q33 16 78 37l80 -162q-84 -39 -173 -70.5t-194 -31.5q-180 0 -284.5 71.5t-104.5 235.5zM354 880q0 67 39 111.5 t114 44.5t112.5 -45t37.5 -108.5t-38.5 -109.5t-112.5 -46t-113 43t-39 110z" />
<glyph unicode="&#xc0;" horiz-adv-x="1239" d="M-10 0l532 1386h193l534 -1386h-260l-127 362h-500l-131 -362h-241zM92 1733l107 168l465 -312l-58 -119l-53 17q-137 41 -263 110.5t-198 135.5zM428 543h371q-100 280 -185 571q-29 -92 -75.5 -241.5t-110.5 -329.5z" />
<glyph unicode="&#xc1;" horiz-adv-x="1239" d="M-10 0l532 1386h193l534 -1386h-260l-127 362h-500l-131 -362h-241zM428 543h371q-100 280 -185 571q-29 -92 -75.5 -241.5t-110.5 -329.5zM555 1589l465 312l106 -168q-120 -110 -328 -197q-79 -33 -132 -49l-54 -17z" />
<glyph unicode="&#xc2;" horiz-adv-x="1239" d="M-10 0l532 1386h193l534 -1386h-260l-127 362h-500l-131 -362h-241zM209 1579l405 322l406 -322l-90 -109l-25 13q-110 41 -291 172q-162 -119 -288 -172l-27 -13zM428 543h371q-100 280 -185 571q-29 -92 -75.5 -241.5t-110.5 -329.5z" />
<glyph unicode="&#xc3;" horiz-adv-x="1239" d="M-10 0l532 1386h193l534 -1386h-260l-127 362h-500l-131 -362h-241zM281 1556v152q90 47 163.5 47t154.5 -20.5t159.5 -20.5t161.5 29v-152q-77 -47 -158.5 -47t-162.5 20.5t-154 20.5t-164 -29zM428 543h371q-100 280 -185 571q-29 -92 -75.5 -241.5t-110.5 -329.5z" />
<glyph unicode="&#xc4;" horiz-adv-x="1239" d="M-10 0l532 1386h193l534 -1386h-260l-127 362h-500l-131 -362h-241zM287 1659q0 55 32.5 93t94 38t94.5 -37t33 -92t-33 -93t-95 -38t-94 37t-32 92zM428 543h371q-100 280 -185 571q-29 -92 -75.5 -241.5t-110.5 -329.5zM694 1659q0 55 33 93t95 38t95 -37t33 -92 t-32.5 -93t-95 -38t-95.5 37t-33 92z" />
<glyph unicode="&#xc5;" horiz-adv-x="1239" d="M-10 0l506 1319q-82 61 -82 159.5t58 157t147.5 58.5t145.5 -57.5t56 -154.5t-82 -161l510 -1321h-260l-127 362h-500l-131 -362h-241zM428 543h371q-100 280 -185 571q-29 -92 -75.5 -241.5t-110.5 -329.5zM528 1500q0 -91 60 -114h55q63 16 64 103q0 47 -24 74.5 t-67 27.5q-88 0 -88 -91z" />
<glyph unicode="&#xc6;" horiz-adv-x="1794" d="M-10 0l839 1386h881v-184h-580v-387h478l-31 -186h-447v-445h611v-184h-850v362h-412l-207 -362h-282zM582 543h309v594q-12 -27 -47 -93.5t-79 -151.5t-93 -178t-90 -171z" />
<glyph unicode="&#xc7;" horiz-adv-x="1071" d="M96 676q0 335 148 526q158 203 456 203q205 0 330 -148l-125 -149q-101 109 -229 109q-316 0 -316 -519q0 -372 172 -481q64 -41 162.5 -41t257.5 53l58 -172l-21 -8q-113 -49 -274 -59l-19 -86q80 -6 132.5 -46t52.5 -105.5t-21.5 -102.5t-56.5 -58q-61 -38 -137 -38 q-118 0 -203 34l33 111q78 -27 131 -27q102 0 102 64q0 42 -65 68q-51 22 -123 22l41 166q-242 20 -364 194t-122 490z" />
<glyph unicode="&#xc8;" horiz-adv-x="1050" d="M57 1733l107 168l465 -312l-58 -119l-53 17q-137 41 -263 110.5t-198 135.5zM143 0v1386h824v-184h-580v-387h477l-30 -186h-447v-445h610v-184h-854z" />
<glyph unicode="&#xc9;" horiz-adv-x="1050" d="M143 0v1386h824v-184h-580v-387h477l-30 -186h-447v-445h610v-184h-854zM522 1589l465 312l107 -168q-119 -109 -329 -197q-79 -33 -132 -49l-53 -17z" />
<glyph unicode="&#xca;" horiz-adv-x="1050" d="M143 0v1386h824v-184h-580v-387h477l-30 -186h-447v-445h610v-184h-854zM174 1579l406 322l405 -322l-90 -109l-25 13q-114 42 -290 172q-161 -119 -289 -172l-27 -13z" />
<glyph unicode="&#xcb;" horiz-adv-x="1050" d="M143 0v1386h824v-184h-580v-387h477l-30 -186h-447v-445h610v-184h-854zM193 1659q0 55 32.5 93t94 38t94 -37t32.5 -92t-32.5 -93t-95 -38t-94 37t-31.5 92zM600 1659q0 55 33 93t95 38t95 -37t33 -92t-32.5 -93t-95 -38t-95.5 37t-33 92z" />
<glyph unicode="&#xcc;" horiz-adv-x="530" d="M-256 1733l106 168l465 -312l-57 -119l-53 17q-137 41 -263 110.5t-198 135.5zM143 0v1386h244v-1386h-244z" />
<glyph unicode="&#xcd;" horiz-adv-x="530" d="M143 0v1386h244v-1386h-244zM209 1589l465 312l106 -168q-119 -109 -328 -197q-79 -33 -133 -49l-53 -17z" />
<glyph unicode="&#xce;" horiz-adv-x="530" d="M-139 1579l405 322l406 -322l-90 -109l-25 13q-110 41 -291 172q-167 -123 -289 -172l-26 -13zM143 0v1386h244v-1386h-244z" />
<glyph unicode="&#xcf;" horiz-adv-x="530" d="M-66 1659q0 55 33 93t94 38t94 -37t33 -92t-32.5 -93t-95 -38t-94.5 37t-32 92zM143 0v1386h244v-1386h-244zM342 1659q0 55 33 93t95 38t95 -37t33 -92t-33 -93t-95 -38t-95 37t-33 92z" />
<glyph unicode="&#xd0;" horiz-adv-x="1316" d="M0 621v180h143v585l169 3l233 2q348 0 516 -173.5t168 -515.5t-172 -524t-539 -182l-234 2l-141 2v621h-143zM387 180q23 -2 59 -2h103q215 0 315.5 126t100.5 376q0 528 -449 528l-129 -2v-405h369v-180h-369v-441z" />
<glyph unicode="&#xd1;" horiz-adv-x="1349" d="M143 0v1391h191l481 -721q41 -59 83 -126t83 -128l-8 132t-4 114l-6 724h243v-1388h-202l-467 729q-39 59 -85 134t-87 138q16 -176 16 -274l6 -725h-244zM354 1573v151q92 48 165 48t154 -20.5t162 -20.5t158 28v-151q-77 -47 -158.5 -47t-162 20.5t-146.5 20.5 t-172 -29z" />
<glyph unicode="&#xd2;" horiz-adv-x="1368" d="M92 676q0 334 146 525q157 204 456 204t440.5 -182t141.5 -518q0 -512 -335 -665q-114 -52 -268.5 -52t-264 46t-180.5 135q-136 172 -136 507zM158 1733l106 168l465 -312l-57 -119l-54 17q-134 41 -261.5 110.5t-198.5 135.5zM356 698q0 -237 67 -364q83 -158 277 -158 q314 0 314 508q0 241 -67 370q-84 163 -277 163q-314 0 -314 -519z" />
<glyph unicode="&#xd3;" horiz-adv-x="1368" d="M92 676q0 334 146 525q157 204 456 204t440.5 -182t141.5 -518q0 -512 -335 -665q-114 -52 -268.5 -52t-264 46t-180.5 135q-136 172 -136 507zM356 698q0 -237 67 -364q83 -158 277 -158q314 0 314 508q0 241 -67 370q-84 163 -277 163q-314 0 -314 -519zM621 1589 l464 312l107 -168q-119 -109 -329 -197q-79 -33 -132 -49l-53 -17z" />
<glyph unicode="&#xd4;" horiz-adv-x="1368" d="M92 676q0 334 146 525q157 204 456 204t440.5 -182t141.5 -518q0 -512 -335 -665q-114 -52 -268.5 -52t-264 46t-180.5 135q-136 172 -136 507zM274 1579l406 322l405 -322l-90 -109l-24 13q-116 43 -291 172q-167 -123 -289 -172l-26 -13zM356 698q0 -237 67 -364 q83 -158 277 -158q314 0 314 508q0 241 -67 370q-84 163 -277 163q-314 0 -314 -519z" />
<glyph unicode="&#xd5;" horiz-adv-x="1368" d="M92 676q0 334 146 525q157 204 456 204t440.5 -182t141.5 -518q0 -512 -335 -665q-114 -52 -268.5 -52t-264 46t-180.5 135q-136 172 -136 507zM346 1556v152q90 47 164 47t154.5 -20.5t160.5 -20.5t160 29v-152q-77 -47 -158.5 -47t-162 20.5t-154 20.5t-164.5 -29z M356 698q0 -237 67 -364q83 -158 277 -158q314 0 314 508q0 241 -67 370q-84 163 -277 163q-314 0 -314 -519z" />
<glyph unicode="&#xd6;" horiz-adv-x="1368" d="M92 676q0 334 146 525q157 204 456 204t440.5 -182t141.5 -518q0 -512 -335 -665q-114 -52 -268.5 -52t-264 46t-180.5 135q-136 172 -136 507zM352 1659q0 55 33 93t94 38t94 -37t33 -92t-32.5 -93t-95 -38t-94.5 37t-32 92zM356 698q0 -237 67 -364q83 -158 277 -158 q314 0 314 508q0 241 -67 370q-84 163 -277 163q-314 0 -314 -519zM760 1659q0 55 32.5 93t95 38t95.5 -37t33 -92t-33 -93t-95 -38t-95 37t-33 92z" />
<glyph unicode="&#xd7;" horiz-adv-x="1056" d="M123 348l276 275l-262 262l125 129l262 -266l269 270l133 -137l-267 -267l275 -272l-125 -129l-274 276l-279 -276z" />
<glyph unicode="&#xd8;" horiz-adv-x="1368" d="M92 676q0 334 146 525q157 204 460 204q84 0 150 -14l51 129l201 -82l-53 -131q229 -165 229 -602q0 -512 -335 -665q-114 -52 -269 -52q-84 0 -154 12l-51 -129l-199 82l51 129q-227 160 -227 594zM356 698q0 -242 66 -364l350 868q-58 15 -102 15q-314 0 -314 -519z M594 188q45 -12 106 -12q314 0 314 508q0 244 -68 373z" />
<glyph unicode="&#xd9;" horiz-adv-x="1300" d="M123 510v876h242v-858q0 -352 297 -352q139 0 205.5 93t66.5 259v858h244v-876q0 -364 -288 -480q-104 -42 -252 -42t-245.5 42t-158.5 114q-111 131 -111 366zM129 1733l107 168l464 -312l-57 -119l-53 17q-137 41 -263 110.5t-198 135.5z" />
<glyph unicode="&#xda;" horiz-adv-x="1300" d="M123 510v876h242v-858q0 -352 297 -352q139 0 205.5 93t66.5 259v858h244v-876q0 -364 -288 -480q-104 -42 -252 -42t-245.5 42t-158.5 114q-111 131 -111 366zM594 1589l465 312l106 -168q-119 -109 -329 -197q-78 -33 -131 -49l-54 -17z" />
<glyph unicode="&#xdb;" horiz-adv-x="1300" d="M123 510v876h242v-858q0 -352 297 -352q139 0 205.5 93t66.5 259v858h244v-876q0 -364 -288 -480q-104 -42 -252 -42t-245.5 42t-158.5 114q-111 131 -111 366zM246 1579l405 322l406 -322l-90 -109l-25 13q-110 41 -291 172q-167 -123 -289 -172l-26 -13z" />
<glyph unicode="&#xdc;" horiz-adv-x="1300" d="M123 510v876h242v-858q0 -352 297 -352q139 0 205.5 93t66.5 259v858h244v-876q0 -364 -288 -480q-104 -42 -252 -42t-245.5 42t-158.5 114q-111 131 -111 366zM317 1659q0 55 33 93t94 38t94 -37t33 -92t-32.5 -93t-95 -38t-94.5 37t-32 92zM725 1659q0 55 33 93t95 38 t95 -37t33 -92t-33 -93t-95 -38t-95 37t-33 92z" />
<glyph unicode="&#xdd;" horiz-adv-x="1112" d="M0 1386h264l291 -628l297 628h258l-436 -866v-520h-244v530zM502 1589l465 312l106 -168q-119 -109 -329 -197q-78 -33 -132 -49l-53 -17z" />
<glyph unicode="&#xde;" horiz-adv-x="1099" d="M143 0v1386h244v-249h168q254 0 373 -108.5t119 -305.5t-129.5 -314.5t-387.5 -117.5h-143v-291h-244zM387 471h158q129 0 184 68.5t55 173.5q0 173 -134 231q-50 21 -110 21h-94q-34 0 -59 -2v-492z" />
<glyph unicode="&#xdf;" horiz-adv-x="1183" d="M-10 -315q187 96 202 270q3 43 3 74v950q0 357 269 469q89 37 196.5 37t175 -24.5t111.5 -64.5q87 -79 87 -182.5t-36.5 -156.5t-81 -90t-81 -68t-36.5 -77t23.5 -79.5t59.5 -62.5t77.5 -58.5t77.5 -70.5q83 -95 83 -240q0 -144 -104 -235q-103 -90 -273 -90 q-118 0 -231 59q-23 12 -29 16l70 154q106 -53 160 -53q172 0 172 131q0 79 -79 143q-34 27 -73 54.5t-73 66.5q-78 91 -78 227q0 76 34.5 127.5t75.5 92t76 80.5t35 102t-49 91.5t-111.5 29.5t-103.5 -28t-65 -72q-46 -82 -46 -212v-944q0 -220 -114 -345 q-75 -81 -236 -163z" />
<glyph unicode="&#xe0;" horiz-adv-x="1097" d="M72 496q0 236 136 386q138 154 353 154q136 0 349 -48q40 -9 46 -11v-483q0 -300 99 -437l-183 -73q-94 94 -104 252q-35 -123 -111.5 -185.5t-190 -62.5t-184.5 35.5t-118 102.5q-92 131 -92 370zM143 1450l156 145l348 -387l-98 -106q-267 171 -406 348zM324 516 q0 -180 21.5 -242.5t54 -92t86 -29.5t96.5 34.5t74 91.5q67 119 67 277v295q-73 22 -143 22t-120 -26.5t-81 -73.5q-55 -83 -55 -256z" />
<glyph unicode="&#xe1;" horiz-adv-x="1097" d="M72 496q0 236 136 386q138 154 353 154q136 0 349 -48q40 -9 46 -11v-483q0 -300 99 -437l-183 -73q-94 94 -104 252q-35 -123 -111.5 -185.5t-190 -62.5t-184.5 35.5t-118 102.5q-92 131 -92 370zM324 516q0 -180 21.5 -242.5t54 -92t86 -29.5t96.5 34.5t74 91.5 q67 119 67 277v295q-73 22 -143 22t-120 -26.5t-81 -73.5q-55 -83 -55 -256zM430 1208l348 387l156 -145q-92 -114 -262 -250q-70 -53 -142 -98z" />
<glyph unicode="&#xe2;" horiz-adv-x="1097" d="M72 496q0 236 136 386q138 154 353 154q136 0 349 -48q40 -9 46 -11v-483q0 -300 99 -437l-183 -73q-94 94 -104 252q-35 -123 -111.5 -185.5t-190 -62.5t-184.5 35.5t-118 102.5q-92 131 -92 370zM178 1212l385 383l383 -383l-88 -110l-22 14q-111 62 -273 199 q-114 -98 -272 -199l-25 -14zM324 516q0 -180 21.5 -242.5t54 -92t86 -29.5t96.5 34.5t74 91.5q67 119 67 277v295q-73 22 -143 22t-120 -26.5t-81 -73.5q-55 -83 -55 -256z" />
<glyph unicode="&#xe3;" horiz-adv-x="1097" d="M72 496q0 236 136 386q138 154 353 154q136 0 349 -48q40 -9 46 -11v-483q0 -300 99 -437l-183 -73q-94 94 -104 252q-35 -123 -111.5 -185.5t-190 -62.5t-184.5 35.5t-118 102.5q-92 131 -92 370zM217 1206v152q90 47 164 47t154.5 -20.5t165 -20.5t155.5 29v-152 q-77 -47 -158.5 -47t-162 20.5t-154 20.5t-164.5 -29zM324 516q0 -180 21.5 -242.5t54 -92t86 -29.5t96.5 34.5t74 91.5q67 119 67 277v295q-73 22 -143 22t-120 -26.5t-81 -73.5q-55 -83 -55 -256z" />
<glyph unicode="&#xe4;" horiz-adv-x="1097" d="M72 496q0 236 136 386q138 154 353 154q136 0 349 -48q40 -9 46 -11v-483q0 -300 99 -437l-183 -73q-94 94 -104 252q-35 -123 -111.5 -185.5t-190 -62.5t-184.5 35.5t-118 102.5q-92 131 -92 370zM215 1331q0 55 33 93t94 38t94 -36.5t33 -92.5q0 -55 -33 -93t-95 -38 t-94 37t-32 92zM324 516q0 -180 21.5 -242.5t54 -92t86 -29.5t96.5 34.5t74 91.5q67 119 67 277v295q-73 22 -143 22t-120 -26.5t-81 -73.5q-55 -83 -55 -256zM623 1331q0 55 32.5 93t95 38t95.5 -36.5t33 -92.5q0 -55 -33 -93t-95 -38t-95 37t-33 92z" />
<glyph unicode="&#xe5;" horiz-adv-x="1097" d="M72 496q0 236 136 386q138 154 353 154q136 0 349 -48q40 -9 46 -11v-483q0 -300 99 -437l-183 -73q-94 94 -104 252q-35 -123 -111.5 -185.5t-190 -62.5t-184.5 35.5t-118 102.5q-92 131 -92 370zM324 516q0 -180 21.5 -242.5t54 -92t86 -29.5t96.5 34.5t74 91.5 q67 119 67 277v295q-73 22 -143 22t-120 -26.5t-81 -73.5q-55 -83 -55 -256zM344 1323q0 88 58.5 146.5t147.5 58.5t145.5 -57.5t56.5 -146.5t-58.5 -148.5t-147.5 -59.5t-145.5 59.5t-56.5 147.5zM459 1325q0 -47 23.5 -77.5t65.5 -30.5t65.5 28.5t23.5 76.5t-23.5 75.5 t-66.5 27.5q-88 0 -88 -100z" />
<glyph unicode="&#xe6;" horiz-adv-x="1556" d="M72 496q0 236 136 386q138 154 353 154q171 0 336 -71q117 80 277 79q173 0 262 -84q80 -75 80 -206q0 -153 -158 -258q-162 -107 -430 -111q14 -107 49 -151t76 -62t102 -18q125 0 291 71l61 -145q-185 -94 -385 -94q-270 0 -377 190q-78 -188 -296 -188 q-188 0 -285 138q-92 131 -92 370zM324 516q0 -180 21.5 -242.5t54 -92t95 -29.5t116 53t81.5 139q-10 55 -10 141q0 207 84 340q-87 47 -171.5 47t-134.5 -26.5t-81 -73.5q-55 -83 -55 -256zM922 532q179 7 278 80q82 60 82 130.5t-35 106.5t-90 36q-124 0 -185 -114 q-45 -86 -50 -239z" />
<glyph unicode="&#xe7;" horiz-adv-x="839" d="M72 485q0 265 134 415q129 144 335 144q177 0 276 -139l-131 -125q-31 35 -62.5 59.5t-73.5 24.5t-80 -9t-70 -45q-76 -84 -76 -294q0 -212 76 -301q53 -61 149 -61q61 0 125.5 18t75.5 23l57 -148q-10 -4 -67.5 -26.5t-157.5 -32.5l-19 -84q80 -6 132.5 -46t52.5 -105.5 t-21.5 -102.5t-56.5 -58q-61 -38 -137 -38q-118 0 -203 34l32 111q78 -27 132 -27q102 0 102 64q0 42 -64 68q-52 22 -124 22l41 164q-191 19 -288 154q-89 125 -89 341z" />
<glyph unicode="&#xe8;" horiz-adv-x="968" d="M72 485q0 267 142 417q134 142 351 142q173 0 262 -84q80 -75 80 -206q0 -153 -159 -258q-162 -107 -429 -111q14 -107 49 -151t76 -62t103 -18q122 0 291 71l61 -145q-185 -94 -385 -94q-442 0 -442 499zM121 1450l155 145l349 -387l-99 -106q-269 173 -405 348z M313 532q181 7 279 80q82 60 82 130.5t-35 106.5t-92 36q-122 0 -183 -114q-46 -88 -51 -239z" />
<glyph unicode="&#xe9;" horiz-adv-x="968" d="M72 485q0 267 142 417q134 142 351 142q173 0 262 -84q80 -75 80 -206q0 -153 -159 -258q-162 -107 -429 -111q14 -107 49 -151t76 -62t103 -18q122 0 291 71l61 -145q-185 -94 -385 -94q-442 0 -442 499zM313 532q181 7 279 80q82 60 82 130.5t-35 106.5t-92 36 q-122 0 -183 -114q-46 -88 -51 -239zM410 1208l348 387l155 -145q-97 -121 -262 -250q-70 -53 -141 -98z" />
<glyph unicode="&#xea;" horiz-adv-x="968" d="M72 485q0 267 142 417q134 142 351 142q173 0 262 -84q80 -75 80 -206q0 -153 -159 -258q-162 -107 -429 -111q14 -107 49 -151t76 -62t103 -18q122 0 291 71l61 -145q-185 -94 -385 -94q-442 0 -442 499zM156 1212l385 383l383 -383l-88 -110l-23 14q-116 65 -272 199 q-128 -111 -273 -199l-24 -14zM313 532q181 7 279 80q82 60 82 130.5t-35 106.5t-92 36q-122 0 -183 -114q-46 -88 -51 -239z" />
<glyph unicode="&#xeb;" horiz-adv-x="968" d="M72 485q0 267 142 417q134 142 351 142q173 0 262 -84q80 -75 80 -206q0 -153 -159 -258q-162 -107 -429 -111q14 -107 49 -151t76 -62t103 -18q122 0 291 71l61 -145q-185 -94 -385 -94q-442 0 -442 499zM193 1331q0 55 32.5 93t94 38t94 -36.5t32.5 -92.5 q0 -55 -32.5 -93t-95 -38t-94 37t-31.5 92zM313 532q181 7 279 80q82 60 82 130.5t-35 106.5t-92 36q-122 0 -183 -114q-46 -88 -51 -239zM600 1331q0 55 33 93t95 38t95 -36.5t33 -92.5q0 -55 -32.5 -93t-95 -38t-95.5 37t-33 92z" />
<glyph unicode="&#xec;" horiz-adv-x="501" d="M-133 1460l164 137l284 -389l-98 -104q-219 187 -350 356zM102 223v797h234v-776q0 -47 14.5 -63.5t32.5 -16.5h27q16 0 36 4l25 -148q-49 -28 -151.5 -28t-160 64.5t-57.5 166.5z" />
<glyph unicode="&#xed;" horiz-adv-x="501" d="M102 223v797h234v-776q0 -47 14.5 -63.5t32.5 -16.5h27q16 0 36 4l25 -148q-49 -28 -151.5 -28t-160 64.5t-57.5 166.5zM115 1208l286 389l162 -137q-115 -144 -204.5 -226.5t-145.5 -129.5z" />
<glyph unicode="&#xee;" horiz-adv-x="501" d="M-131 1206l348 393l350 -393l-96 -102q-102 71 -254 209q-108 -101 -167.5 -145t-86.5 -64zM102 223v797h234v-776q0 -47 14.5 -63.5t32.5 -16.5h27q16 0 36 4l25 -148q-49 -28 -151.5 -28t-160 64.5t-57.5 166.5z" />
<glyph unicode="&#xef;" horiz-adv-x="501" d="M-72 1320q0 52 32 88t90 36t89 -34t31 -87t-32 -90t-90 -37t-89 36t-31 88zM102 223v797h234v-776q0 -47 14.5 -63.5t32.5 -16.5h27q16 0 36 4l25 -148q-49 -28 -151.5 -28t-160 64.5t-57.5 166.5zM266 1320q0 52 32 88t91 36t90 -34t31 -87t-32 -90t-91 -37t-90 36 t-31 88z" />
<glyph unicode="&#xf0;" horiz-adv-x="1058" d="M72 489q0 221 114 357q121 145 332 145q109 0 195 -59q-47 116 -99 203l-229 -64l-41 160l154 33l-111 86l119 143q115 -72 211 -176l250 65l41 -157l-193 -41q172 -278 172 -672q0 -242 -115 -382q-124 -150 -352 -150q-226 0 -342 142q-106 131 -106 367zM324 506.5 q0 -68.5 9 -133t33 -113.5q54 -108 175 -108q159 0 186 210q8 62 8 131t-9 130t-34 107q-52 99 -174 99q-160 0 -186 -195q-8 -59 -8 -127.5z" />
<glyph unicode="&#xf1;" horiz-adv-x="1124" d="M51 952l185 74q74 -86 100 -221q53 123 153.5 177t210.5 54q158 0 228.5 -95t70.5 -257v-684h-231v662q0 190 -135 190q-98 0 -170 -92q-78 -100 -78 -254v-506h-233v516q0 292 -101 436zM322 1206v152q90 47 163.5 47t154.5 -20.5t164 -20.5t157 29v-152 q-77 -47 -158.5 -47t-162.5 20.5t-154 20.5t-164 -29z" />
<glyph unicode="&#xf2;" horiz-adv-x="1058" d="M72 500q0 244 116 388q125 156 355.5 156t337 -139t106.5 -383q0 -242 -115 -386q-126 -156 -352 -156q-448 0 -448 520zM121 1450l155 145l349 -387l-99 -106q-269 173 -405 348zM324 519q0 -75 9 -142.5t33 -117.5q53 -107 175 -107q159 0 186 212q8 64 8 139t-9 142.5 t-34 118.5q-51 108 -174 108q-160 0 -186 -214q-8 -64 -8 -139z" />
<glyph unicode="&#xf3;" horiz-adv-x="1058" d="M72 500q0 244 116 388q125 156 355.5 156t337 -139t106.5 -383q0 -242 -115 -386q-126 -156 -352 -156q-448 0 -448 520zM324 519q0 -75 9 -142.5t33 -117.5q53 -107 175 -107q159 0 186 212q8 64 8 139t-9 142.5t-34 118.5q-51 108 -174 108q-160 0 -186 -214 q-8 -64 -8 -139zM410 1208l348 387l155 -145q-97 -121 -262 -250q-70 -53 -141 -98z" />
<glyph unicode="&#xf4;" horiz-adv-x="1058" d="M72 500q0 244 116 388q125 156 355.5 156t337 -139t106.5 -383q0 -242 -115 -386q-126 -156 -352 -156q-448 0 -448 520zM156 1212l385 383l383 -383l-88 -110l-23 14q-116 65 -272 199q-128 -111 -273 -199l-24 -14zM324 519q0 -75 9 -142.5t33 -117.5q53 -107 175 -107 q159 0 186 212q8 64 8 139t-9 142.5t-34 118.5q-51 108 -174 108q-160 0 -186 -214q-8 -64 -8 -139z" />
<glyph unicode="&#xf5;" horiz-adv-x="1058" d="M72 500q0 244 116 388q125 156 355.5 156t337 -139t106.5 -383q0 -242 -115 -386q-126 -156 -352 -156q-448 0 -448 520zM195 1206v152q90 47 163.5 47t154.5 -20.5t164 -20.5t157 29v-152q-77 -47 -158.5 -47t-162.5 20.5t-154 20.5t-164 -29zM324 519q0 -75 9 -142.5 t33 -117.5q53 -107 175 -107q159 0 186 212q8 64 8 139t-9 142.5t-34 118.5q-51 108 -174 108q-160 0 -186 -214q-8 -64 -8 -139z" />
<glyph unicode="&#xf6;" horiz-adv-x="1058" d="M72 500q0 244 116 388q125 156 355.5 156t337 -139t106.5 -383q0 -242 -115 -386q-126 -156 -352 -156q-448 0 -448 520zM193 1331q0 55 32.5 93t94 38t94 -36.5t32.5 -92.5q0 -55 -32.5 -93t-95 -38t-94 37t-31.5 92zM324 519q0 -75 9 -142.5t33 -117.5 q53 -107 175 -107q159 0 186 212q8 64 8 139t-9 142.5t-34 118.5q-51 108 -174 108q-160 0 -186 -214q-8 -64 -8 -139zM600 1331q0 55 33 93t95 38t95 -36.5t33 -92.5q0 -55 -32.5 -93t-95 -38t-95.5 37t-33 92z" />
<glyph unicode="&#xf7;" horiz-adv-x="1046" d="M123 526v183h801v-183h-801zM397 275q0 52 32 89t91 37t90 -34.5t31 -87.5q0 -54 -31.5 -90.5t-91 -36.5t-90.5 35.5t-31 87.5zM397 949q0 52 32 89t91 37t90 -34.5t31 -88.5q0 -53 -31.5 -90t-91 -37t-90.5 36t-31 88z" />
<glyph unicode="&#xf8;" horiz-adv-x="1058" d="M72 500q0 244 116 388q125 156 351 156q75 0 145 -16l51 105l158 -72l-55 -113q149 -130 149 -426q0 -242 -115 -386q-126 -156 -352 -156q-76 0 -145 16l-51 -107l-160 72l55 115q-147 128 -147 424zM324 530q0 -128 18 -202l258 528q-37 16 -82 16q-160 0 -186 -214 q-8 -64 -8 -128zM459 166q31 -14 86 -14t93 26.5t60 74.5q37 84 37 222.5t-20 220.5z" />
<glyph unicode="&#xf9;" horiz-adv-x="1124" d="M123 340v680h233v-676q0 -86 31 -135t90.5 -49t103.5 25.5t79 72.5q79 104 79 262v500h234v-526q0 -201 49 -340q23 -61 49 -97l-182 -73q-41 38 -68.5 104t-34.5 123q-55 -121 -155.5 -172t-208.5 -51q-162 0 -230.5 94t-68.5 258zM150 1450l155 145l348 -387l-98 -106 q-269 173 -405 348z" />
<glyph unicode="&#xfa;" horiz-adv-x="1124" d="M123 340v680h233v-676q0 -86 31 -135t90.5 -49t103.5 25.5t79 72.5q79 104 79 262v500h234v-526q0 -201 49 -340q23 -61 49 -97l-182 -73q-41 38 -68.5 104t-34.5 123q-55 -121 -155.5 -172t-208.5 -51q-162 0 -230.5 94t-68.5 258zM438 1208l348 387l156 -145 q-92 -114 -262 -250q-70 -53 -141 -98z" />
<glyph unicode="&#xfb;" horiz-adv-x="1124" d="M123 340v680h233v-676q0 -86 31 -135t90.5 -49t103.5 25.5t79 72.5q79 104 79 262v500h234v-526q0 -201 49 -340q23 -61 49 -97l-182 -73q-41 38 -68.5 104t-34.5 123q-55 -121 -155.5 -172t-208.5 -51q-162 0 -230.5 94t-68.5 258zM186 1212l385 383l383 -383l-88 -110 l-22 14q-111 62 -273 199q-74 -64 -161.5 -124.5t-110.5 -74.5l-25 -14z" />
<glyph unicode="&#xfc;" horiz-adv-x="1124" d="M123 340v680h233v-676q0 -86 31 -135t90.5 -49t103.5 25.5t79 72.5q79 104 79 262v500h234v-526q0 -201 49 -340q23 -61 49 -97l-182 -73q-41 38 -68.5 104t-34.5 123q-55 -121 -155.5 -172t-208.5 -51q-162 0 -230.5 94t-68.5 258zM223 1331q0 55 33 93t94 38t94 -36.5 t33 -92.5q0 -55 -32.5 -93t-95 -38t-94.5 37t-32 92zM631 1331q0 55 32.5 93t95 38t95.5 -36.5t33 -92.5q0 -55 -33 -93t-95 -38t-95 37t-33 92z" />
<glyph unicode="&#xfd;" horiz-adv-x="1101" d="M123 340v680h233v-674q0 -86 31 -135t105 -49q86 0 162 85q83 92 83 218v555h240l-10 -606q0 -86 20.5 -175t30.5 -140.5t10 -112.5q0 -217 -110.5 -323.5t-299.5 -106.5q-153 0 -325 65q-37 14 -49 21l57 178q193 -80 302.5 -80t160.5 68.5t51 172t-41 207.5 q-57 -109 -152.5 -154.5t-199.5 -45.5q-162 0 -230.5 94t-68.5 258zM432 1208l348 387l156 -145q-92 -114 -262 -250q-70 -53 -142 -98z" />
<glyph unicode="&#xfe;" horiz-adv-x="1089" d="M133 -453v1897l234 41v-590q80 141 274 141q188 0 285 -138q92 -131 92 -370q0 -235 -136 -386q-139 -154 -354 -154q-38 0 -161 12v-412zM367 172q90 -20 150.5 -20t111.5 26.5t81 73.5q56 86 56 256q0 180 -21.5 241.5t-54.5 91t-85 29.5t-95 -32.5t-75 -87.5 q-68 -115 -68 -269v-309z" />
<glyph unicode="&#xff;" horiz-adv-x="1101" d="M123 340v680h233v-674q0 -86 31 -135t105 -49q86 0 162 85q83 92 83 218v555h240l-10 -606q0 -86 20.5 -175t30.5 -140.5t10 -112.5q0 -217 -110.5 -323.5t-299.5 -106.5q-153 0 -325 65q-37 14 -49 21l57 178q193 -80 302.5 -80t160.5 68.5t51 172t-41 207.5 q-57 -109 -152.5 -154.5t-199.5 -45.5q-162 0 -230.5 94t-68.5 258zM215 1331q0 55 33 93t94 38t94 -36.5t33 -92.5q0 -55 -33 -93t-95 -38t-94 37t-32 92zM623 1331q0 55 32.5 93t95 38t95.5 -36.5t33 -92.5q0 -55 -33 -93t-95 -38t-95 37t-33 92z" />
<glyph unicode="&#x152;" horiz-adv-x="1748" d="M92 676q0 334 146 525q157 204 460 204q109 0 168 -19h801v-184h-582v-387h480l-31 -186h-449v-445h613v-184h-856q-135 -12 -170 -12q-580 0 -580 688zM356 698q0 -237 67 -364q83 -158 277 -158q27 0 144 12v1002q-78 27 -174 27q-314 0 -314 -519z" />
<glyph unicode="&#x153;" horiz-adv-x="1638" d="M72 500q0 244 116 388q125 156 351 156q217 0 338 -159q135 159 358 159q171 0 260 -84q80 -75 80 -206q0 -153 -158 -258q-162 -107 -430 -111q14 -107 49 -151t76 -62t102 -18q125 0 291 71l62 -145q-185 -94 -395.5 -94t-323.5 145q-123 -151 -328 -151 q-448 0 -448 520zM324 519q0 -75 9 -142.5t33 -117.5q53 -107 175 -107q159 0 186 212q8 64 8 139t-9 142.5t-34 118.5q-51 108 -174 108q-160 0 -186 -214q-8 -64 -8 -139zM983 532q181 7 279 80q81 59 81 130t-35.5 107t-90.5 36q-122 0 -183 -114q-46 -88 -51 -239z" />
<glyph unicode="&#x178;" horiz-adv-x="1112" d="M0 1386h264l291 -628l297 628h258l-436 -866v-520h-244v530zM223 1659q0 55 33 93t94 38t94 -37t33 -92t-32.5 -93t-95 -38t-94.5 37t-32 92zM631 1659q0 55 32.5 93t95 38t95.5 -37t33 -92t-33 -93t-95 -38t-95 37t-33 92z" />
<glyph unicode="&#x2c6;" d="M143 1212l385 383l383 -383l-88 -110l-22 14q-111 62 -273 199q-74 -64 -161.5 -124.5t-110.5 -74.5l-25 -14z" />
<glyph unicode="&#x2dc;" d="M193 1206v152q90 47 163.5 47t154.5 -20.5t165 -20.5t155 29v-152q-77 -47 -158 -47t-162 20.5t-154 20.5t-164 -29z" />
<glyph unicode="&#x2000;" horiz-adv-x="950" />
<glyph unicode="&#x2001;" horiz-adv-x="1901" />
<glyph unicode="&#x2002;" horiz-adv-x="950" />
<glyph unicode="&#x2003;" horiz-adv-x="1901" />
<glyph unicode="&#x2004;" horiz-adv-x="633" />
<glyph unicode="&#x2005;" horiz-adv-x="475" />
<glyph unicode="&#x2006;" horiz-adv-x="316" />
<glyph unicode="&#x2007;" horiz-adv-x="316" />
<glyph unicode="&#x2008;" horiz-adv-x="237" />
<glyph unicode="&#x2009;" horiz-adv-x="380" />
<glyph unicode="&#x200a;" horiz-adv-x="105" />
<glyph unicode="&#x2010;" horiz-adv-x="784" d="M102 569v170h580v-170h-580z" />
<glyph unicode="&#x2011;" horiz-adv-x="784" d="M102 569v170h580v-170h-580z" />
<glyph unicode="&#x2012;" horiz-adv-x="784" d="M102 569v170h580v-170h-580z" />
<glyph unicode="&#x2013;" d="M0 569v170h1024v-170h-1024z" />
<glyph unicode="&#x2014;" horiz-adv-x="1429" d="M0 569v170h1430v-170h-1430z" />
<glyph unicode="&#x2018;" horiz-adv-x="471" d="M41 1048.5q0 73.5 23.5 142.5t62.5 124q71 100 195 164l88 -119q-138 -99 -138 -234q0 -59 18.5 -110t20.5 -90q-2 -2 -31.5 -19.5t-101.5 -17.5t-104.5 43t-32.5 116.5z" />
<glyph unicode="&#x2019;" horiz-adv-x="471" d="M61 1012q136 100 136 233q0 59 -18.5 110.5t-20.5 90.5q2 2 32.5 19.5t102.5 17.5t104.5 -43t32.5 -118t-23.5 -142.5t-62.5 -123.5q-73 -104 -194 -163z" />
<glyph unicode="&#x201a;" horiz-adv-x="471" d="M61 -182q136 100 136 233q0 59 -18.5 110.5t-20.5 90.5q2 2 32.5 19.5t102.5 17.5t104.5 -43t32.5 -118t-23.5 -142.5t-62.5 -123.5q-73 -104 -194 -163z" />
<glyph unicode="&#x201c;" horiz-adv-x="880" d="M41 1048.5q0 73.5 23.5 142.5t62.5 124q71 100 195 164l88 -119q-138 -99 -138 -234q0 -59 18.5 -110t20.5 -90q-2 -2 -31.5 -19.5t-101.5 -17.5t-104.5 43t-32.5 116.5zM449 1048.5q0 73.5 23.5 142.5t63.5 124q70 98 195 164l86 -119q-135 -100 -135 -234 q0 -59 18.5 -110t20.5 -90q-2 -2 -32 -19.5t-101 -17.5q-72 0 -105.5 43t-33.5 116.5z" />
<glyph unicode="&#x201d;" horiz-adv-x="880" d="M61 1018q136 100 136 233q0 59 -18.5 110.5t-20.5 90.5q2 2 32.5 19.5t102.5 17.5t104.5 -43t32.5 -118t-23.5 -142.5t-62.5 -122.5q-75 -105 -194 -164zM471 1018q135 100 135 233q0 59 -18.5 110.5t-20.5 90.5q2 2 32 19.5t101 17.5q72 0 106 -43t34 -118t-23.5 -142.5 t-63.5 -122.5q-77 -105 -196 -164z" />
<glyph unicode="&#x201e;" horiz-adv-x="880" d="M61 -182q136 100 136 233q0 59 -18.5 110.5t-20.5 90.5q2 2 32.5 19.5t102.5 17.5t104.5 -43t32.5 -118t-23.5 -142.5t-62.5 -123.5q-73 -104 -194 -163zM471 -182q135 100 135 233q0 59 -18.5 110.5t-20.5 90.5q2 2 32 19.5t101 17.5q72 0 106 -43t34 -118t-23.5 -142.5 t-63.5 -123.5q-75 -104 -196 -163z" />
<glyph unicode="&#x2022;" horiz-adv-x="643" d="M102 647q0 101 59.5 160t160.5 59q100 0 159.5 -59t59.5 -160q0 -100 -59.5 -159.5t-159.5 -59.5t-160 59.5t-60 159.5z" />
<glyph unicode="&#x202f;" horiz-adv-x="380" />
<glyph unicode="&#x2039;" horiz-adv-x="710" d="M102 502q83 106 221 239.5t220 204.5l96 -110l-266 -334l266 -334l-96 -111q-292 257 -441 445z" />
<glyph unicode="&#x203a;" horiz-adv-x="710" d="M72 168l266 334l-266 334l98 110q310 -279 438 -444q-86 -111 -222 -242t-216 -203z" />
<glyph unicode="&#x205f;" horiz-adv-x="475" />
<glyph unicode="&#x20ac;" horiz-adv-x="1134" d="M72 381v180h98q-2 16 -2 35v64q0 12 2 26h-98v182h123q51 205 186 327t332 122q189 0 307 -139l-117 -146q-95 103 -215 103q-90 0 -152.5 -74t-91.5 -193h443l-31 -182h-436l-2 -53q0 -29 6 -72h422l-31 -180h-356q75 -211 248 -211q101 0 217 41q22 8 28 10l52 -168 q2 0 -24 -10t-72 -23q-120 -32 -244 -32q-170 0 -294 99t-175 294h-123z" />
<glyph unicode="&#xe000;" d="M0 0v1024h1024v-1024h-1024z" />
</font>
</defs>
</svg>
